<?xml version="1.0" encoding="UTF-8" standalone="no"?>
<!-- Generator: Gravit.io -->
<svg xmlns="http://www.w3.org/2000/svg" xmlns:xlink="http://www.w3.org/1999/xlink" style="isolation:isolate" viewBox="1372.735681 1004.683361 691.34152 179.05248" width="691.34152pt" height="179.05248pt">
	<g style="isolation:isolate" id="musicbutton">
		<defs>
			<filter id="CWQWuOnmIpUOwQW0lm0U2IgC7ile5keu" x="-200%" y="-200%" width="400%" height="400%" filterUnits="objectBoundingBox" color-interpolation-filters="sRGB">
				<feOffset xmlns="http://www.w3.org/2000/svg" in="SourceGraphic" dx="3" dy="5" />
				<feGaussianBlur xmlns="http://www.w3.org/2000/svg" stdDeviation="2.146804531419514" result="pf_100_offsetBlur" />
				<feComposite xmlns="http://www.w3.org/2000/svg" in="SourceGraphic" in2="pf_100_offsetBlur" result="pf_100_inverse" operator="out" />
				<feFlood xmlns="http://www.w3.org/2000/svg" flood-color="#848484" flood-opacity="1" result="pf_100_color" />
				<feComposite xmlns="http://www.w3.org/2000/svg" in="pf_100_color" in2="pf_100_inverse" operator="in" result="pf_100_shadow" />
				<feComposite xmlns="http://www.w3.org/2000/svg" in="pf_100_shadow" in2="SourceGraphic" operator="over" />
			</filter>
		</defs>
		<g filter="url(#CWQWuOnmIpUOwQW0lm0U2IgC7ile5keu)">
			<rect x="1372.735681" y="1004.683361" width="691.34152" height="179.05248" transform="matrix(1,0,0,1,0,0)" id="Rectangle" fill="rgb(235,235,235)" />
		</g>
		<defs>
			<filter id="VSm7xa2Pc47ZtqBAQljwiuLqDcVnqSgZ" x="-200%" y="-200%" width="400%" height="400%" filterUnits="objectBoundingBox" color-interpolation-filters="sRGB">
				<feGaussianBlur xmlns="http://www.w3.org/2000/svg" in="SourceGraphic" stdDeviation="2.146804531419514" />
				<feOffset xmlns="http://www.w3.org/2000/svg" dx="5" dy="5" result="pf_100_offsetBlur" />
				<feFlood xmlns="http://www.w3.org/2000/svg" flood-color="#9F9D9D" flood-opacity="1" />
				<feComposite xmlns="http://www.w3.org/2000/svg" in2="pf_100_offsetBlur" operator="in" result="pf_100_dropShadow" />
				<feBlend xmlns="http://www.w3.org/2000/svg" in="SourceGraphic" in2="pf_100_dropShadow" mode="normal" />
			</filter>
		</defs>
		<g filter="url(#VSm7xa2Pc47ZtqBAQljwiuLqDcVnqSgZ)">
			<circle vector-effect="non-scaling-stroke" cx="1466.5000000000005" cy="1095.5" r="73.5" id="Ellipse" fill="rgb(208,208,208)" />
		</g>
		<path d=" M 1451.5 1051.5 Q 1451 1138 1451.5 1138 L 1495 1094.5 C 1495 1094.5 1452 1052.5 1451.5 1051.5 Z " id="play-icon" fill="rgb(116,116,116)" />
		<g id="pause-icon">
			<rect x="1442.5" y="1052.5" width="15.5" height="85" transform="matrix(1,0,0,1,0,0)" id="Rectangle" fill="rgb(116,116,116)" />
			<rect x="1475" y="1052.5" width="15.5" height="85" transform="matrix(1,0,0,1,0,0)" id="Rectangle" fill="rgb(116,116,116)" />
		</g>
		<path d=" M 1597.339 1153.382 L 1590.383 1152.79 L 1593.343 1121.932 L 1597.709 1118.898 L 1613.841 1123.264 L 1629.455 1118.898 L 1633.895 1122.154 L 1635.449 1152.938 L 1628.493 1153.308 L 1627.087 1126.89 L 1616.949 1129.628 L 1617.097 1153.012 L 1610.215 1153.16 L 1609.993 1129.554 L 1599.929 1126.742 L 1597.339 1153.382 L 1597.339 1153.382 Z  M 1679.035 1154.196 L 1671.043 1149.46 L 1647.659 1153.308 L 1643.589 1149.682 L 1645.365 1119.786 L 1652.321 1120.156 L 1650.841 1145.686 L 1669.415 1142.726 L 1670.969 1119.712 L 1677.999 1120.304 L 1676.371 1144.502 L 1682.661 1148.276 L 1679.035 1154.196 L 1679.035 1154.196 Z  M 1707.525 1157.674 L 1686.361 1153.752 L 1687.693 1146.87 L 1706.341 1150.422 L 1711.817 1140.95 L 1689.765 1137.842 L 1686.805 1133.994 L 1687.915 1119.712 L 1691.171 1116.53 L 1714.851 1114.68 L 1715.295 1121.636 L 1694.723 1123.19 L 1694.057 1131.33 L 1717.811 1134.734 L 1720.401 1139.914 L 1711.151 1156.046 L 1707.525 1157.674 L 1707.525 1157.674 Z  M 1729.651 1121.044 L 1727.431 1112.756 L 1734.165 1110.906 L 1736.385 1119.194 L 1729.651 1121.044 L 1729.651 1121.044 Z  M 1732.537 1155.528 L 1725.581 1154.714 L 1729.207 1125.336 L 1736.163 1126.15 L 1732.537 1155.528 L 1732.537 1155.528 Z  M 1746.819 1155.084 L 1743.045 1151.31 L 1746.449 1118.75 L 1750.445 1115.716 L 1774.199 1119.564 L 1773.089 1126.446 L 1753.035 1123.19 L 1750.371 1147.684 L 1775.087 1144.724 L 1775.901 1151.68 L 1746.819 1155.084 L 1746.819 1155.084 Z  M 1594.527 1081.454 L 1590.383 1077.754 L 1593.195 1035.426 L 1600.225 1035.87 L 1599.337 1048.302 L 1621.315 1050.226 L 1624.497 1053.926 L 1623.017 1073.462 L 1620.279 1076.57 L 1594.527 1081.454 L 1594.527 1081.454 Z  M 1598.893 1055.184 L 1597.635 1073.832 L 1616.283 1070.28 L 1617.319 1056.886 L 1598.893 1055.184 L 1598.893 1055.184 Z  M 1674.447 1081.676 L 1667.047 1079.604 L 1665.715 1078.05 L 1635.153 1082.934 L 1631.157 1078.716 L 1635.449 1061.77 L 1638.779 1059.106 L 1662.163 1059.106 L 1660.609 1047.562 L 1633.969 1054.074 L 1632.267 1047.34 L 1662.681 1039.866 L 1666.973 1042.826 L 1671.117 1073.536 L 1676.297 1075.016 L 1674.447 1081.676 L 1674.447 1081.676 Z  M 1639.223 1075.164 L 1663.791 1071.242 L 1663.125 1066.136 L 1641.517 1066.136 L 1639.223 1075.164 L 1639.223 1075.164 Z  M 1684.511 1081.084 L 1680.737 1077.31 L 1684.141 1044.75 L 1688.137 1041.716 L 1711.891 1045.564 L 1710.781 1052.446 L 1690.727 1049.19 L 1688.063 1073.684 L 1712.779 1070.724 L 1713.593 1077.68 L 1684.511 1081.084 L 1684.511 1081.084 Z  M 1725.655 1080.714 L 1718.773 1079.234 L 1729.355 1031.356 L 1736.163 1032.836 L 1725.655 1080.714 L 1725.655 1080.714 Z  M 1752.147 1082.638 L 1733.943 1066.728 L 1733.869 1061.696 L 1748.817 1047.414 L 1753.627 1052.446 L 1741.417 1064.064 L 1756.735 1077.384 L 1752.147 1082.638 L 1752.147 1082.638 Z  M 1763.617 1086.338 L 1762.359 1079.53 L 1786.631 1075.238 L 1786.039 1062.51 L 1764.579 1067.024 L 1760.435 1062.954 L 1764.727 1040.828 L 1768.501 1038.016 L 1788.999 1039.94 L 1792.181 1043.196 L 1793.661 1078.05 L 1790.775 1081.528 L 1763.617 1086.338 L 1763.617 1086.338 Z  M 1771.017 1045.194 L 1768.279 1059.18 L 1785.669 1055.48 L 1785.299 1046.6 L 1771.017 1045.194 L 1771.017 1045.194 Z  M 1802.911 1081.75 L 1801.801 1042.752 L 1808.757 1042.53 L 1808.979 1051.632 L 1825.851 1043.64 L 1828.811 1050.078 L 1809.201 1059.254 L 1809.941 1081.602 L 1802.911 1081.75 L 1802.911 1081.75 Z  M 1862.111 1079.678 L 1835.027 1078.124 L 1831.771 1074.35 L 1833.547 1048.968 L 1836.877 1045.786 L 1861.445 1044.75 L 1865.071 1048.154 L 1865.811 1076.126 L 1862.111 1079.678 L 1862.111 1079.678 Z  M 1839.023 1071.39 L 1858.781 1072.5 L 1858.263 1051.854 L 1840.281 1052.594 L 1839.023 1071.39 L 1839.023 1071.39 Z  M 1910.137 1080.196 L 1902.145 1075.46 L 1878.761 1079.308 L 1874.691 1075.682 L 1876.467 1045.786 L 1883.423 1046.156 L 1881.943 1071.686 L 1900.517 1068.726 L 1902.071 1045.712 L 1909.101 1046.304 L 1907.473 1070.502 L 1913.763 1074.276 L 1910.137 1080.196 L 1910.137 1080.196 Z  M 1944.695 1079.234 L 1943.437 1054 L 1927.675 1056.516 L 1924.419 1078.346 L 1917.463 1077.31 L 1921.163 1052.964 L 1924.049 1050.004 L 1946.249 1046.526 L 1950.319 1049.782 L 1951.725 1078.864 L 1944.695 1079.234 L 1944.695 1079.234 Z  M 1962.899 1081.454 L 1959.125 1077.532 L 1962.529 1052.002 L 1966.525 1049.042 L 1988.281 1052.52 L 1987.097 1035.944 L 1994.127 1035.5 L 1996.717 1074.424 L 1993.609 1078.124 L 1962.899 1081.454 L 1962.899 1081.454 Z  M 1968.967 1056.442 L 1966.599 1074.054 L 1989.539 1071.612 L 1988.725 1059.624 L 1968.967 1056.442 L 1968.967 1056.442 Z " id="background-music" fill="rgb(136,136,129)" />
	</g>
</svg>
